<?xml version="1.0" encoding="UTF-8"?>
<svg xmlns="http://www.w3.org/2000/svg" viewBox="0 0 1200 1080"
     font-family="'PingFang SC','Noto Sans SC','SF Pro Display',system-ui,sans-serif">

<defs>
  <marker id="ah" markerWidth="8" markerHeight="6" refX="8" refY="3" orient="auto">
    <path d="M0,0 L8,3 L0,6Z" fill="#78909C"/>
  </marker>
  <marker id="ah-blue" markerWidth="8" markerHeight="6" refX="8" refY="3" orient="auto">
    <path d="M0,0 L8,3 L0,6Z" fill="#1565C0"/>
  </marker>
  <marker id="ah-red" markerWidth="8" markerHeight="6" refX="8" refY="3" orient="auto">
    <path d="M0,0 L8,3 L0,6Z" fill="#C62828"/>
  </marker>
  <marker id="ah-teal" markerWidth="8" markerHeight="6" refX="8" refY="3" orient="auto">
    <path d="M0,0 L8,3 L0,6Z" fill="#00897B"/>
  </marker>
  <linearGradient id="titleBar" x1="0" y1="0" x2="1" y2="0">
    <stop offset="0%" stop-color="#0D47A1"/>
    <stop offset="100%" stop-color="#1565C0"/>
  </linearGradient>
  <linearGradient id="paimonZone" x1="0" y1="0" x2="0" y2="1">
    <stop offset="0%" stop-color="#E3F2FD" stop-opacity="0.9"/>
    <stop offset="100%" stop-color="#BBDEFB" stop-opacity="0.6"/>
  </linearGradient>
  <linearGradient id="dorisGrad" x1="0" y1="0" x2="1" y2="1">
    <stop offset="0%" stop-color="#5C6BC0"/>
    <stop offset="100%" stop-color="#3949AB"/>
  </linearGradient>
</defs>

<!-- ==================== BACKGROUND ==================== -->
<rect width="1200" height="1080" fill="#FAFBFC" rx="12"/>
<rect x="0.5" y="0.5" width="1199" height="1079" fill="none" stroke="#E0E0E0" rx="12"/>

<!-- ==================== TITLE ==================== -->
<rect x="0" y="0" width="1200" height="65" rx="12" fill="url(#titleBar)"/>
<rect x="0" y="40" width="1200" height="25" fill="url(#titleBar)"/>
<text x="600" y="30" text-anchor="middle" font-size="20" font-weight="700" fill="#FFF"
      letter-spacing="2">AI 可观测性统一湖仓架构</text>
<text x="600" y="52" text-anchor="middle" font-size="11" fill="#90CAF9"
      letter-spacing="1.5">UNIFIED LAKEHOUSE · PAIMON SINGLE SOURCE OF TRUTH</text>


<!-- ============================================================ -->
<!-- LAYER 1: 数据源层  (y: 85–190)                                 -->
<!-- ============================================================ -->
<rect x="100" y="85" width="1082" height="105" rx="5" fill="#FFF8E1" opacity="0.55"/>
<rect x="8" y="85" width="86" height="105" rx="5" fill="#FFD54F"/>
<text x="51" y="132" text-anchor="middle" font-size="12" font-weight="700" fill="#F57F17">数据源层</text>
<text x="51" y="147" text-anchor="middle" font-size="9" fill="#F9A825">Source</text>

<!-- App source -->
<rect x="160" y="93" width="290" height="34" rx="6" fill="#FF8F00"/>
<text x="305" y="114" text-anchor="middle" font-size="12" font-weight="500" fill="#FFF">App / Agent / DeepSeek API</text>

<!-- PostgreSQL -->
<rect x="175" y="143" width="260" height="38" rx="6" fill="#336791"/>
<text x="305" y="164" text-anchor="middle" font-size="12" font-weight="600" fill="#FFF">PostgreSQL 源表</text>
<text x="305" y="177" text-anchor="middle" font-size="8" fill="#B0BEC5">CDC 操作源 · WAL logical</text>

<line x1="305" y1="127" x2="305" y2="143" stroke="#78909C" stroke-width="1.5" marker-end="url(#ah)"/>

<!-- Mock / JSONL -->
<rect x="720" y="93" width="280" height="34" rx="6" fill="#FF8F00"/>
<text x="860" y="114" text-anchor="middle" font-size="12" font-weight="500" fill="#FFF">Mock Generator / Hermes</text>

<rect x="740" y="143" width="240" height="38" rx="6" fill="#EF6C00"/>
<text x="860" y="164" text-anchor="middle" font-size="12" font-weight="500" fill="#FFF">Raw JSONL 事件</text>
<text x="860" y="177" text-anchor="middle" font-size="8" fill="#FFCCBC">Postgres Seed / Backfill 输入</text>

<line x1="860" y1="127" x2="860" y2="143" stroke="#78909C" stroke-width="1.5" marker-end="url(#ah)"/>

<!-- Seed arrow: JSONL → PostgreSQL (dashed, shows mock seeds PG) -->
<path d="M740,162 C600,162 550,162 435,162" stroke="#78909C" stroke-width="1.2"
      stroke-dasharray="5,4" fill="none" marker-end="url(#ah)"/>
<text x="575" y="155" text-anchor="middle" font-size="9" fill="#90A4AE">seed data</text>


<!-- ============================================================ -->
<!-- LAYER 2: ODS 层  (y: 210–310)                                  -->
<!-- ============================================================ -->
<rect x="100" y="210" width="1082" height="100" rx="5" fill="#E1F5FE" opacity="0.45"/>
<rect x="8" y="210" width="86" height="100" rx="5" fill="#4FC3F7"/>
<text x="51" y="255" text-anchor="middle" font-size="12" font-weight="700" fill="#0277BD">ODS 层</text>
<text x="51" y="270" text-anchor="middle" font-size="9" fill="#0288D1">缓冲 / 暂存</text>

<!-- Flink CDC -->
<rect x="195" y="218" width="220" height="34" rx="6" fill="#D32F2F"/>
<text x="305" y="239" text-anchor="middle" font-size="12" font-weight="500" fill="#FFF">Flink CDC 采集</text>

<!-- Kafka ODS -->
<rect x="175" y="267" width="260" height="36" rx="6" fill="#212121"/>
<text x="305" y="288" text-anchor="middle" font-size="12" font-weight="500" fill="#FFF">Kafka ODS 事件流</text>
<text x="305" y="300" text-anchor="middle" font-size="8" fill="#9E9E9E">KRaft · 48h retention</text>

<line x1="305" y1="181" x2="305" y2="218" stroke="#78909C" stroke-width="1.5" marker-end="url(#ah)"/>
<line x1="305" y1="252" x2="305" y2="267" stroke="#78909C" stroke-width="1.5" marker-end="url(#ah)"/>

<!-- Right side: Spark Backfill entry label -->
<rect x="770" y="238" width="180" height="44" rx="8" fill="#E65100"/>
<text x="860" y="258" text-anchor="middle" font-size="11" font-weight="600" fill="#FFF">Spark Paimon</text>
<text x="860" y="274" text-anchor="middle" font-size="11" font-weight="600" fill="#FFF">Backfill / Validate</text>

<line x1="860" y1="181" x2="860" y2="238" stroke="#78909C" stroke-width="1.5" marker-end="url(#ah)"/>


<!-- ============================================================ -->
<!-- PAIMON UNIFIED WAREHOUSE ZONE  (y: 330–580)                   -->
<!-- ============================================================ -->
<rect x="100" y="330" width="1082" height="250" rx="8" fill="url(#paimonZone)"
      stroke="#1565C0" stroke-width="2" stroke-dasharray="0"/>
<rect x="8" y="330" width="86" height="250" rx="5" fill="#1565C0"/>
<text x="51" y="425" text-anchor="middle" font-size="12" font-weight="700" fill="#FFF">Paimon</text>
<text x="51" y="440" text-anchor="middle" font-size="12" font-weight="700" fill="#FFF">统一湖仓</text>
<text x="51" y="460" text-anchor="middle" font-size="8" fill="#BBDEFB">DWD + DWS</text>
<text x="51" y="475" text-anchor="middle" font-size="8" fill="#BBDEFB">Single Source</text>
<text x="51" y="488" text-anchor="middle" font-size="8" fill="#BBDEFB">of Truth</text>

<!-- Zone title -->
<text x="600" y="352" text-anchor="middle" font-size="13" font-weight="700" fill="#0D47A1"
      letter-spacing="1">PAIMON 统一湖仓 · 流批共享存储</text>

<!-- DWD sub-section -->
<text x="130" y="383" font-size="11" font-weight="700" fill="#1565C0">DWD</text>
<text x="130" y="395" font-size="9" fill="#1976D2">明细事实</text>

<!-- Flink SQL Transform -->
<rect x="175" y="370" width="200" height="50" rx="6" fill="#D32F2F"/>
<text x="275" y="391" text-anchor="middle" font-size="11" font-weight="500" fill="#FFF">Flink SQL 转换</text>
<text x="275" y="410" text-anchor="middle" font-size="9" fill="#FFCDD2">DQ 校验 · 9 rules</text>

<!-- Paimon DWD (central, prominent) -->
<rect x="430" y="368" width="310" height="56" rx="10" fill="#0D47A1"
      stroke="#1565C0" stroke-width="1"/>
<text x="585" y="392" text-anchor="middle" font-size="14" font-weight="700" fill="#FFF">Paimon DWD 明细事实表</text>
<text x="585" y="412" text-anchor="middle" font-size="9" fill="#90CAF9">dwd_ai_llm_request_di · PRIMARY KEY · 4 buckets</text>

<!-- Spark Backfill → DWD -->
<rect x="800" y="370" width="200" height="50" rx="6" fill="#E65100"/>
<text x="900" y="391" text-anchor="middle" font-size="11" font-weight="500" fill="#FFF">Spark DWD 回填</text>
<text x="900" y="410" text-anchor="middle" font-size="9" fill="#FFCCBC">DQ 校验 · 9 rules</text>

<!-- Arrows: Kafka → Flink → Paimon DWD ← Spark -->
<line x1="305" y1="303" x2="305" y2="330" stroke="#78909C" stroke-width="1.5"/>
<path d="M305,330 L275,370" stroke="#78909C" stroke-width="1.5" marker-end="url(#ah)"/>
<line x1="375" y1="395" x2="430" y2="395" stroke="#1565C0" stroke-width="2" marker-end="url(#ah-blue)"/>
<line x1="800" y1="395" x2="740" y2="395" stroke="#1565C0" stroke-width="2" marker-end="url(#ah-blue)"/>
<line x1="860" y1="282" x2="860" y2="330" stroke="#78909C" stroke-width="1.5"/>
<path d="M860,330 L900,370" stroke="#78909C" stroke-width="1.5" marker-end="url(#ah)"/>

<!-- Quarantine -->
<rect x="1040" y="380" width="120" height="40" rx="6" fill="#C62828"/>
<text x="1100" y="398" text-anchor="middle" font-size="10" font-weight="500" fill="#FFF">Quarantine</text>
<text x="1100" y="412" text-anchor="middle" font-size="8" fill="#FFCDD2">隔离不合格事件</text>

<line x1="1000" y1="400" x2="1040" y2="400" stroke="#C62828" stroke-width="1.5"
      stroke-dasharray="4,3" marker-end="url(#ah-red)"/>

<!-- DWS sub-section -->
<text x="130" y="473" font-size="11" font-weight="700" fill="#1565C0">DWS</text>
<text x="130" y="485" font-size="9" fill="#1976D2">公共汇总</text>

<!-- Flink Streaming Agg -->
<rect x="175" y="460" width="200" height="50" rx="6" fill="#D32F2F"/>
<text x="275" y="481" text-anchor="middle" font-size="11" font-weight="500" fill="#FFF">Flink 流式聚合</text>
<text x="275" y="500" text-anchor="middle" font-size="9" fill="#FFCDD2">max_latency · p95=0</text>

<!-- Paimon DWS (central, prominent) -->
<rect x="430" y="458" width="310" height="56" rx="10" fill="#0D47A1"
      stroke="#1565C0" stroke-width="1"/>
<text x="585" y="482" text-anchor="middle" font-size="14" font-weight="700" fill="#FFF">Paimon DWS 汇总指标表</text>
<text x="585" y="502" text-anchor="middle" font-size="9" fill="#90CAF9">dws_ai_llm_feature_request_1d · 日粒度 · 可加聚合</text>

<!-- Spark Backfill → DWS -->
<rect x="800" y="460" width="200" height="50" rx="6" fill="#E65100"/>
<text x="900" y="481" text-anchor="middle" font-size="11" font-weight="500" fill="#FFF">Spark DWS 回填</text>
<text x="900" y="500" text-anchor="middle" font-size="9" fill="#FFCCBC">max + p95 latency</text>

<!-- Arrows: Paimon DWD → Flink Agg → Paimon DWS ← Spark -->
<line x1="275" y1="420" x2="275" y2="460" stroke="#78909C" stroke-width="1.5" marker-end="url(#ah)"/>
<line x1="375" y1="485" x2="430" y2="485" stroke="#1565C0" stroke-width="2" marker-end="url(#ah-blue)"/>
<line x1="800" y1="485" x2="740" y2="485" stroke="#1565C0" stroke-width="2" marker-end="url(#ah-blue)"/>
<line x1="900" y1="420" x2="900" y2="460" stroke="#78909C" stroke-width="1.5" marker-end="url(#ah)"/>

<!-- DWD → DWS center arrow -->
<line x1="585" y1="424" x2="585" y2="458" stroke="#0D47A1" stroke-width="2" marker-end="url(#ah-blue)"/>

<!-- Paimon Validate (side note) -->
<rect x="1040" y="468" width="120" height="36" rx="6" fill="#0277BD"/>
<text x="1100" y="486" text-anchor="middle" font-size="10" font-weight="500" fill="#FFF">Spark Validate</text>
<text x="1100" y="499" text-anchor="middle" font-size="8" fill="#B3E5FC">读取 DWD 校验</text>

<line x1="1000" y1="490" x2="1040" y2="490" stroke="#0277BD" stroke-width="1.2"
      stroke-dasharray="4,3" marker-end="url(#ah)"/>

<!-- DWD table schema badges -->
<rect x="430" y="530" width="142" height="22" rx="4" fill="#C8E6C9" stroke="#43A047" stroke-width="1"/>
<text x="501" y="545" text-anchor="middle" font-size="9" font-weight="600" fill="#2E7D32">统一 DQ · 9 条规则</text>

<rect x="598" y="530" width="142" height="22" rx="4" fill="#C8E6C9" stroke="#43A047" stroke-width="1"/>
<text x="669" y="545" text-anchor="middle" font-size="9" font-weight="600" fill="#2E7D32">统一 Schema · 流批一致</text>


<!-- ============================================================ -->
<!-- LAYER 5: ADS 层  (y: 600–670)                                  -->
<!-- ============================================================ -->
<rect x="100" y="600" width="1082" height="70" rx="5" fill="#FFF3E0" opacity="0.45"/>
<rect x="8" y="600" width="86" height="70" rx="5" fill="#FFAB40"/>
<text x="51" y="633" text-anchor="middle" font-size="12" font-weight="700" fill="#E65100">ADS 层</text>
<text x="51" y="648" text-anchor="middle" font-size="9" fill="#EF6C00">应用集市</text>

<!-- ADS: Cost Anomaly -->
<rect x="180" y="610" width="200" height="46" rx="6" fill="#E65100"/>
<text x="280" y="631" text-anchor="middle" font-size="11" font-weight="500" fill="#FFF">成本异常检测</text>
<text x="280" y="648" text-anchor="middle" font-size="8" fill="#FFCCBC">ads_observability_cost_feature_anomaly</text>

<!-- ADS: SLA -->
<rect x="430" y="610" width="200" height="46" rx="6" fill="#E65100"/>
<text x="530" y="631" text-anchor="middle" font-size="11" font-weight="500" fill="#FFF">SLA 达标报告</text>
<text x="530" y="648" text-anchor="middle" font-size="8" fill="#FFCCBC">ads_observability_sla_feature_report</text>

<!-- ADS: Prompt Version -->
<rect x="680" y="610" width="220" height="46" rx="6" fill="#E65100"/>
<text x="790" y="631" text-anchor="middle" font-size="11" font-weight="500" fill="#FFF">Prompt 版本分析</text>
<text x="790" y="648" text-anchor="middle" font-size="8" fill="#FFCCBC">ads_prompt_version_daily</text>

<!-- ADS label -->
<text x="1040" y="637" font-size="10" fill="#BF360C" font-weight="600">Spark 读取</text>
<text x="1040" y="652" font-size="10" fill="#BF360C" font-weight="600">Paimon DWS/DWD</text>

<!-- Arrows from Paimon zone to ADS -->
<path d="M500,560 C500,585 280,585 280,610" stroke="#78909C" stroke-width="1.2" fill="none" marker-end="url(#ah)"/>
<path d="M585,560 C585,585 530,585 530,610" stroke="#78909C" stroke-width="1.2" fill="none" marker-end="url(#ah)"/>
<path d="M670,560 C670,585 790,585 790,610" stroke="#78909C" stroke-width="1.2" fill="none" marker-end="url(#ah)"/>


<!-- ============================================================ -->
<!-- LAYER 6: 服务层  (y: 690–775)                                  -->
<!-- ============================================================ -->
<rect x="100" y="690" width="1082" height="85" rx="5" fill="#E8EAF6" opacity="0.45"/>
<rect x="8" y="690" width="86" height="85" rx="5" fill="#9FA8DA"/>
<text x="51" y="730" text-anchor="middle" font-size="12" font-weight="700" fill="#283593">服务层</text>
<text x="51" y="745" text-anchor="middle" font-size="9" fill="#303F9F">Serving</text>

<!-- Doris -->
<rect x="300" y="698" width="440" height="65" rx="10" fill="url(#dorisGrad)"/>
<text x="520" y="722" text-anchor="middle" font-size="17" font-weight="700" fill="#FFF">Apache Doris</text>
<text x="520" y="742" text-anchor="middle" font-size="10" fill="#C5CAE9">OLAP 分析引擎 · MySQL 协议 · Port 9030</text>
<text x="520" y="756" text-anchor="middle" font-size="9" fill="#9FA8DA">DUPLICATE KEY 事实表 · UNIQUE KEY 维度表 · MV 物化视图</text>

<!-- Multi-Catalog badge -->
<rect x="790" y="705" width="200" height="50" rx="8" fill="#283593" stroke="#5C6BC0" stroke-width="1.5"/>
<text x="890" y="726" text-anchor="middle" font-size="11" font-weight="600" fill="#FFF">Doris Multi-Catalog</text>
<text x="890" y="744" text-anchor="middle" font-size="9" fill="#9FA8DA">直读 Paimon DWS</text>

<!-- Multi-Catalog arrow from Paimon zone to Doris -->
<path d="M890,700 C890,620 750,580 700,560" stroke="#5C6BC0" stroke-width="2"
      stroke-dasharray="6,4" fill="none" marker-end="url(#ah)"/>
<text x="830" y="635" font-size="9" fill="#5C6BC0" font-weight="600"
      transform="rotate(-50,830,635)">Multi-Catalog</text>

<!-- pymysql loader arrow -->
<rect x="1040" y="712" width="120" height="36" rx="6" fill="#7986CB"/>
<text x="1100" y="730" text-anchor="middle" font-size="10" font-weight="500" fill="#FFF">pymysql Loader</text>
<text x="1100" y="743" text-anchor="middle" font-size="8" fill="#C5CAE9">Parquet → Doris</text>

<line x1="1040" y1="730" x2="990" y2="730" stroke="#78909C" stroke-width="1.2" marker-end="url(#ah)"/>

<!-- Arrows from DWS/ADS → Doris -->
<path d="M370,560 C370,630 420,630 420,698" stroke="#78909C" stroke-width="1.5" fill="none" marker-end="url(#ah)"/>
<path d="M480,656 C480,674 480,674 480,698" stroke="#78909C" stroke-width="1.2" fill="none" marker-end="url(#ah)"/>


<!-- ============================================================ -->
<!-- LAYER 7: 应用层  (y: 795–860)                                  -->
<!-- ============================================================ -->
<rect x="100" y="795" width="1082" height="65" rx="5" fill="#E0F2F1" opacity="0.45"/>
<rect x="8" y="795" width="86" height="65" rx="5" fill="#80CBC4"/>
<text x="51" y="827" text-anchor="middle" font-size="12" font-weight="700" fill="#00695C">应用层</text>
<text x="51" y="842" text-anchor="middle" font-size="9" fill="#00796B">Application</text>

<!-- Dashboard -->
<rect x="370" y="805" width="300" height="44" rx="8" fill="#00897B"/>
<text x="520" y="828" text-anchor="middle" font-size="14" font-weight="700" fill="#FFF">Dashboard / BI 分析</text>
<text x="520" y="843" text-anchor="middle" font-size="9" fill="#B2DFDB">实时监控 · 成本分析 · SLA · 异常告警</text>

<line x1="520" y1="763" x2="520" y2="805" stroke="#78909C" stroke-width="1.5" marker-end="url(#ah)"/>


<!-- ============================================================ -->
<!-- LEGEND  (y: 880–1050)                                          -->
<!-- ============================================================ -->
<rect x="100" y="880" width="1082" height="170" rx="8" fill="#ECEFF1" opacity="0.4"/>
<text x="600" y="905" text-anchor="middle" font-size="12" font-weight="700" fill="#455A64"
      letter-spacing="1">技术组件图例</text>

<!-- Row 1 -->
<rect x="120" y="920" width="16" height="16" rx="3" fill="#336791"/>
<text x="142" y="933" font-size="11" fill="#37474F">PostgreSQL CDC 源</text>

<rect x="290" y="920" width="16" height="16" rx="3" fill="#D32F2F"/>
<text x="312" y="933" font-size="11" fill="#37474F">Apache Flink (CDC + SQL)</text>

<rect x="500" y="920" width="16" height="16" rx="3" fill="#212121"/>
<text x="522" y="933" font-size="11" fill="#37474F">Apache Kafka (KRaft)</text>

<rect x="700" y="920" width="16" height="16" rx="3" fill="#0D47A1"/>
<text x="722" y="933" font-size="11" fill="#37474F">Apache Paimon 湖仓</text>

<rect x="910" y="920" width="16" height="16" rx="3" fill="#E65100"/>
<text x="932" y="933" font-size="11" fill="#37474F">Apache Spark 回填</text>

<!-- Row 2 -->
<rect x="120" y="950" width="16" height="16" rx="3" fill="#5C6BC0"/>
<text x="142" y="963" font-size="11" fill="#37474F">Apache Doris OLAP</text>

<rect x="290" y="950" width="16" height="16" rx="3" fill="#FF8F00"/>
<text x="312" y="963" font-size="11" fill="#37474F">数据源 / 采集器</text>

<rect x="500" y="950" width="16" height="16" rx="3" fill="#EF6C00"/>
<text x="522" y="963" font-size="11" fill="#37474F">Raw JSONL 事件</text>

<rect x="700" y="950" width="16" height="16" rx="3" fill="#43A047"/>
<text x="722" y="963" font-size="11" fill="#37474F">Data Quality 校验</text>

<rect x="910" y="950" width="16" height="16" rx="3" fill="#C62828"/>
<text x="932" y="963" font-size="11" fill="#37474F">Quarantine 隔离</text>

<!-- Architecture summary -->
<text x="600" y="1000" text-anchor="middle" font-size="10" fill="#546E7A" font-weight="600">
  数据流: PG CDC → Kafka ODS → Flink SQL (DQ 9 rules) → Paimon DWD → Paimon DWS → Doris Multi-Catalog → Dashboard
</text>
<text x="600" y="1018" text-anchor="middle" font-size="10" fill="#90A4AE">
  补充路径: JSONL → Spark Backfill (DQ 9 rules) → Paimon DWD/DWS (共享同一套表)
</text>
<text x="600" y="1036" text-anchor="middle" font-size="10" fill="#90A4AE">
  应用集市: Spark 读取 Paimon DWS/DWD → ADS 成本异常 / SLA / Prompt 版本分析
</text>

</svg>
