<?xml version="1.0" encoding="UTF-8"?>
<svg xmlns="http://www.w3.org/2000/svg" viewBox="0 0 1140 900"
     font-family="'PingFang SC','Noto Sans SC','SF Pro Display',system-ui,sans-serif">

<defs>
  <marker id="ah" markerWidth="8" markerHeight="6" refX="8" refY="3" orient="auto">
    <path d="M0,0 L8,3 L0,6Z" fill="#78909C"/>
  </marker>
  <marker id="ah-red" markerWidth="8" markerHeight="6" refX="8" refY="3" orient="auto">
    <path d="M0,0 L8,3 L0,6Z" fill="#C62828"/>
  </marker>
  <linearGradient id="dorisGrad" x1="0" y1="0" x2="1" y2="1">
    <stop offset="0%" stop-color="#5C6BC0"/>
    <stop offset="100%" stop-color="#3949AB"/>
  </linearGradient>
  <linearGradient id="titleBar" x1="0" y1="0" x2="1" y2="0">
    <stop offset="0%" stop-color="#1A237E"/>
    <stop offset="100%" stop-color="#283593"/>
  </linearGradient>
</defs>

<!-- ==================== BACKGROUND ==================== -->
<rect width="1140" height="900" fill="#FAFBFC" rx="12"/>
<rect x="0.5" y="0.5" width="1139" height="899" fill="none" stroke="#E0E0E0" rx="12"/>

<!-- ==================== TITLE ==================== -->
<rect x="0" y="0" width="1140" height="65" rx="12" fill="url(#titleBar)"/>
<rect x="0" y="40" width="1140" height="25" fill="url(#titleBar)"/>
<text x="570" y="30" text-anchor="middle" font-size="20" font-weight="700" fill="#FFFFFF"
      letter-spacing="2">AI 可观测性数据湖仓架构</text>
<text x="570" y="52" text-anchor="middle" font-size="11" fill="#9FA8DA"
      letter-spacing="1.5">STREAM-BATCH HSAP ARCHITECTURE</text>

<!-- ==================== COLUMN HEADERS ==================== -->
<text x="320" y="86" text-anchor="middle" font-size="14" font-weight="700" fill="#1565C0">实时流处理路径</text>
<line x1="255" y1="91" x2="385" y2="91" stroke="#1565C0" stroke-width="2" stroke-linecap="round"/>

<text x="840" y="86" text-anchor="middle" font-size="14" font-weight="700" fill="#BF360C">批处理路径</text>
<line x1="790" y1="91" x2="890" y2="91" stroke="#BF360C" stroke-width="2" stroke-linecap="round"/>

<!-- Vertical divider -->
<line x1="578" y1="98" x2="578" y2="545" stroke="#CFD8DC" stroke-width="1" stroke-dasharray="5,4"/>


<!-- ============================================================ -->
<!-- LAYER 1: 数据源层                                              -->
<!-- ============================================================ -->
<rect x="98" y="100" width="1024" height="95" rx="5" fill="#FFF8E1" opacity="0.55"/>
<rect x="8" y="100" width="84" height="95" rx="5" fill="#FFD54F"/>
<text x="50" y="143" text-anchor="middle" font-size="12" font-weight="700" fill="#F57F17">数据源层</text>
<text x="50" y="158" text-anchor="middle" font-size="9" fill="#F9A825">Source</text>

<!-- Streaming: App source -->
<rect x="195" y="107" width="250" height="34" rx="6" fill="#FF8F00"/>
<text x="320" y="128" text-anchor="middle" font-size="12" font-weight="500" fill="#FFF">App / Agent / DeepSeek API</text>

<!-- Streaming: Postgres -->
<rect x="205" y="153" width="230" height="34" rx="6" fill="#336791"/>
<text x="320" y="174" text-anchor="middle" font-size="12" font-weight="500" fill="#FFF">PostgreSQL 源表</text>

<line x1="320" y1="141" x2="320" y2="153" stroke="#78909C" stroke-width="1.5" marker-end="url(#ah)"/>

<!-- Batch: Sources -->
<rect x="715" y="107" width="250" height="34" rx="6" fill="#FF8F00"/>
<text x="840" y="128" text-anchor="middle" font-size="12" font-weight="500" fill="#FFF">Mock / DeepSeek / Hermes</text>

<!-- Batch: JSONL -->
<rect x="740" y="153" width="200" height="34" rx="6" fill="#EF6C00"/>
<text x="840" y="174" text-anchor="middle" font-size="12" font-weight="500" fill="#FFF">Raw JSONL 事件</text>

<line x1="840" y1="141" x2="840" y2="153" stroke="#78909C" stroke-width="1.5" marker-end="url(#ah)"/>


<!-- ============================================================ -->
<!-- LAYER 2: ODS 层                                                -->
<!-- ============================================================ -->
<rect x="98" y="215" width="1024" height="100" rx="5" fill="#E1F5FE" opacity="0.45"/>
<rect x="8" y="215" width="84" height="100" rx="5" fill="#4FC3F7"/>
<text x="50" y="261" text-anchor="middle" font-size="12" font-weight="700" fill="#0277BD">ODS 层</text>
<text x="50" y="276" text-anchor="middle" font-size="9" fill="#0288D1">缓冲 / 暂存</text>

<!-- Streaming: Flink CDC -->
<rect x="220" y="222" width="200" height="34" rx="6" fill="#D32F2F"/>
<text x="320" y="243" text-anchor="middle" font-size="12" font-weight="500" fill="#FFF">Flink CDC 采集</text>

<!-- Streaming: Kafka ODS -->
<rect x="200" y="270" width="240" height="36" rx="6" fill="#212121"/>
<text x="320" y="292" text-anchor="middle" font-size="12" font-weight="500" fill="#FFF">Kafka ODS 事件流</text>
<text x="320" y="302" text-anchor="middle" font-size="8" fill="#9E9E9E">KRaft · 48h retention</text>

<line x1="320" y1="187" x2="320" y2="222" stroke="#78909C" stroke-width="1.5" marker-end="url(#ah)"/>
<line x1="320" y1="256" x2="320" y2="270" stroke="#78909C" stroke-width="1.5" marker-end="url(#ah)"/>

<!-- Batch: Spark ODS -->
<rect x="715" y="245" width="250" height="40" rx="6" fill="#E65100"/>
<text x="840" y="270" text-anchor="middle" font-size="12" font-weight="500" fill="#FFF">Spark → ODS Parquet</text>

<line x1="840" y1="187" x2="840" y2="245" stroke="#78909C" stroke-width="1.5" marker-end="url(#ah)"/>


<!-- ============================================================ -->
<!-- LAYER 3: DWD 层                                                -->
<!-- ============================================================ -->
<rect x="98" y="335" width="1024" height="108" rx="5" fill="#E8F5E9" opacity="0.45"/>
<rect x="8" y="335" width="84" height="108" rx="5" fill="#81C784"/>
<text x="50" y="383" text-anchor="middle" font-size="12" font-weight="700" fill="#2E7D32">DWD 层</text>
<text x="50" y="398" text-anchor="middle" font-size="9" fill="#388E3C">明细事实</text>

<!-- Streaming: Flink SQL -->
<rect x="225" y="342" width="190" height="34" rx="6" fill="#D32F2F"/>
<text x="320" y="363" text-anchor="middle" font-size="12" font-weight="500" fill="#FFF">Flink SQL 转换</text>

<!-- Streaming: Paimon DWD -->
<rect x="195" y="390" width="250" height="44" rx="8" fill="#1565C0"/>
<text x="320" y="409" text-anchor="middle" font-size="13" font-weight="600" fill="#FFF">Paimon DWD 明细表</text>
<text x="320" y="425" text-anchor="middle" font-size="9" fill="#BBDEFB">湖仓存储 · 流批一体</text>

<line x1="320" y1="306" x2="320" y2="342" stroke="#78909C" stroke-width="1.5" marker-end="url(#ah)"/>
<line x1="320" y1="376" x2="320" y2="390" stroke="#78909C" stroke-width="1.5" marker-end="url(#ah)"/>

<!-- Batch: Spark DWD -->
<rect x="715" y="340" width="250" height="38" rx="6" fill="#E65100"/>
<text x="840" y="364" text-anchor="middle" font-size="12" font-weight="500" fill="#FFF">Spark → DWD Parquet</text>

<!-- DQ badge -->
<rect x="730" y="388" width="220" height="26" rx="4" fill="#C8E6C9" stroke="#43A047" stroke-width="1.2"/>
<text x="840" y="406" text-anchor="middle" font-size="11" font-weight="600" fill="#2E7D32">Data Quality 校验 (9 rules)</text>

<!-- Quarantine box -->
<rect x="985" y="352" width="118" height="52" rx="6" fill="#C62828"/>
<text x="1044" y="374" text-anchor="middle" font-size="11" font-weight="500" fill="#FFF">隔离表</text>
<text x="1044" y="390" text-anchor="middle" font-size="9" fill="#FFCDD2">Quarantine</text>

<line x1="840" y1="285" x2="840" y2="340" stroke="#78909C" stroke-width="1.5" marker-end="url(#ah)"/>

<!-- DQ → Quarantine dashed arrow -->
<line x1="950" y1="401" x2="985" y2="382" stroke="#C62828" stroke-width="1.5"
      stroke-dasharray="4,3" marker-end="url(#ah-red)"/>


<!-- ============================================================ -->
<!-- LAYER 4: DWS 层                                                -->
<!-- ============================================================ -->
<rect x="98" y="463" width="1024" height="78" rx="5" fill="#F3E5F5" opacity="0.45"/>
<rect x="8" y="463" width="84" height="78" rx="5" fill="#CE93D8"/>
<text x="50" y="500" text-anchor="middle" font-size="12" font-weight="700" fill="#6A1B9A">DWS 层</text>
<text x="50" y="515" text-anchor="middle" font-size="9" fill="#7B1FA2">汇总指标</text>

<!-- Streaming: Paimon DWS -->
<rect x="195" y="473" width="250" height="44" rx="8" fill="#1565C0"/>
<text x="320" y="492" text-anchor="middle" font-size="13" font-weight="600" fill="#FFF">Paimon DWS 汇总表</text>
<text x="320" y="508" text-anchor="middle" font-size="9" fill="#BBDEFB">日粒度 · 可加聚合</text>

<line x1="320" y1="434" x2="320" y2="473" stroke="#78909C" stroke-width="1.5" marker-end="url(#ah)"/>

<!-- Batch: Spark Backfill -->
<rect x="715" y="473" width="250" height="44" rx="6" fill="#E65100"/>
<text x="840" y="492" text-anchor="middle" font-size="12" font-weight="500" fill="#FFF">Spark → Paimon DWS 回填</text>
<text x="840" y="508" text-anchor="middle" font-size="9" fill="#FFCCBC">共享仓库 · 回填/校验</text>

<line x1="840" y1="414" x2="840" y2="473" stroke="#78909C" stroke-width="1.5" marker-end="url(#ah)"/>


<!-- ============================================================ -->
<!-- LAYER 5: 服务层                                                -->
<!-- ============================================================ -->
<rect x="98" y="565" width="1024" height="80" rx="5" fill="#E8EAF6" opacity="0.45"/>
<rect x="8" y="565" width="84" height="80" rx="5" fill="#9FA8DA"/>
<text x="50" y="603" text-anchor="middle" font-size="12" font-weight="700" fill="#283593">服务层</text>
<text x="50" y="618" text-anchor="middle" font-size="9" fill="#303F9F">Serving</text>

<!-- Doris -->
<rect x="400" y="575" width="340" height="55" rx="10" fill="url(#dorisGrad)"/>
<text x="570" y="599" text-anchor="middle" font-size="17" font-weight="700" fill="#FFF">Apache Doris</text>
<text x="570" y="618" text-anchor="middle" font-size="10" fill="#C5CAE9">OLAP 分析引擎 · MySQL 协议 · Port 9030</text>

<!-- Convergence curves: DWS → Doris -->
<path d="M320,517 C320,546 480,546 480,575" stroke="#78909C" stroke-width="1.5" fill="none" marker-end="url(#ah)"/>
<path d="M840,517 C840,546 660,546 660,575" stroke="#78909C" stroke-width="1.5" fill="none" marker-end="url(#ah)"/>


<!-- ============================================================ -->
<!-- LAYER 6: 应用层                                                -->
<!-- ============================================================ -->
<rect x="98" y="668" width="1024" height="65" rx="5" fill="#E0F2F1" opacity="0.45"/>
<rect x="8" y="668" width="84" height="65" rx="5" fill="#80CBC4"/>
<text x="50" y="700" text-anchor="middle" font-size="12" font-weight="700" fill="#00695C">应用层</text>
<text x="50" y="715" text-anchor="middle" font-size="9" fill="#00796B">Application</text>

<!-- Dashboard -->
<rect x="430" y="678" width="280" height="44" rx="8" fill="#00897B"/>
<text x="570" y="705" text-anchor="middle" font-size="14" font-weight="600" fill="#FFF">Dashboard / BI 分析</text>

<line x1="570" y1="630" x2="570" y2="678" stroke="#78909C" stroke-width="1.5" marker-end="url(#ah)"/>


<!-- ============================================================ -->
<!-- LEGEND                                                         -->
<!-- ============================================================ -->
<rect x="98" y="755" width="1024" height="130" rx="8" fill="#ECEFF1" opacity="0.4"/>
<text x="570" y="778" text-anchor="middle" font-size="12" font-weight="700" fill="#455A64"
      letter-spacing="1">技术组件图例</text>

<!-- Row 1 -->
<rect x="120" y="792" width="16" height="16" rx="3" fill="#336791"/>
<text x="142" y="805" font-size="11" fill="#37474F">PostgreSQL</text>

<rect x="260" y="792" width="16" height="16" rx="3" fill="#D32F2F"/>
<text x="282" y="805" font-size="11" fill="#37474F">Apache Flink</text>

<rect x="410" y="792" width="16" height="16" rx="3" fill="#212121"/>
<text x="432" y="805" font-size="11" fill="#37474F">Apache Kafka</text>

<rect x="570" y="792" width="16" height="16" rx="3" fill="#1565C0"/>
<text x="592" y="805" font-size="11" fill="#37474F">Apache Paimon</text>

<rect x="740" y="792" width="16" height="16" rx="3" fill="#E65100"/>
<text x="762" y="805" font-size="11" fill="#37474F">Apache Spark</text>

<rect x="900" y="792" width="16" height="16" rx="3" fill="#5C6BC0"/>
<text x="922" y="805" font-size="11" fill="#37474F">Apache Doris</text>

<!-- Row 2 -->
<rect x="120" y="822" width="16" height="16" rx="3" fill="#FF8F00"/>
<text x="142" y="835" font-size="11" fill="#37474F">数据源适配器</text>

<rect x="260" y="822" width="16" height="16" rx="3" fill="#EF6C00"/>
<text x="282" y="835" font-size="11" fill="#37474F">Raw JSONL</text>

<rect x="410" y="822" width="16" height="16" rx="3" fill="#43A047"/>
<text x="432" y="835" font-size="11" fill="#37474F">Data Quality</text>

<rect x="570" y="822" width="16" height="16" rx="3" fill="#C62828"/>
<text x="592" y="835" font-size="11" fill="#37474F">Quarantine 隔离</text>

<rect x="740" y="822" width="16" height="16" rx="3" fill="#00897B"/>
<text x="762" y="835" font-size="11" fill="#37474F">Dashboard / BI</text>

<!-- Summary flow line -->
<text x="570" y="868" text-anchor="middle" font-size="10" fill="#90A4AE">
  实时: PG CDC → Kafka → Flink SQL → Paimon ──┐
</text>
<text x="570" y="880" text-anchor="middle" font-size="10" fill="#90A4AE">
  批处理: JSONL → Spark → Parquet ─────────────┴──→ Doris OLAP → Dashboard
</text>

</svg>
